<?xml version="1.0" encoding="utf-8"?>
<!-- Generator: Adobe Illustrator 25.2.0, SVG Export Plug-In . SVG Version: 6.00 Build 0)  -->
<svg version="1.1" id="Layer_1"
	xmlns="http://www.w3.org/2000/svg"
	xmlns:xlink="http://www.w3.org/1999/xlink" x="0px" y="0px" viewBox="0 0 25 25" style="enable-background:new 0 0 25 25;" xml:space="preserve">

	<g>
		<path fill="#ffffff" d="M25,12.5c0-1.66-2.07-3.23-5.25-4.2c0.73-3.24,0.41-5.82-1.03-6.64C18.39,1.47,18,1.37,17.58,1.37v1.14
		c0.23,0,0.42,0.05,0.58,0.13c0.69,0.4,0.99,1.91,0.76,3.86c-0.06,0.48-0.15,0.98-0.26,1.5c-1-0.24-2.09-0.43-3.24-0.56
		c-0.69-0.94-1.4-1.8-2.12-2.55c1.66-1.54,3.22-2.39,4.28-2.39V1.37l0,0c-1.4,0-3.24,1-5.09,2.73C10.63,2.38,8.8,1.39,7.4,1.39v1.14
		c1.05,0,2.62,0.84,4.28,2.37c-0.71,0.75-1.43,1.6-2.1,2.54C8.42,7.56,7.33,7.75,6.33,8c-0.12-0.51-0.2-1-0.26-1.48
		C5.83,4.58,6.13,3.07,6.81,2.66C6.97,2.57,7.16,2.53,7.4,2.53V1.39l0,0c-0.43,0-0.82,0.09-1.15,0.29C4.82,2.5,4.49,5.08,5.23,8.31
		C2.06,9.29,0,10.85,0,12.5c0,1.66,2.07,3.23,5.25,4.2c-0.73,3.24-0.41,5.82,1.03,6.64c0.33,0.19,0.72,0.29,1.15,0.29
		c1.4,0,3.24-1,5.09-2.73c1.85,1.72,3.69,2.71,5.09,2.71c0.43,0,0.82-0.09,1.15-0.29c1.43-0.83,1.75-3.4,1.01-6.63
		C22.94,15.72,25,14.15,25,12.5z M18.37,9.1c-0.19,0.66-0.42,1.34-0.69,2.01c-0.21-0.41-0.43-0.82-0.67-1.22
		c-0.23-0.41-0.48-0.81-0.73-1.19C17,8.81,17.7,8.94,18.37,9.1z M16.03,14.53c-0.4,0.69-0.81,1.34-1.23,1.95
		c-0.76,0.07-1.53,0.1-2.3,0.1c-0.77,0-1.54-0.04-2.29-0.1c-0.42-0.61-0.84-1.25-1.23-1.94c-0.39-0.67-0.74-1.35-1.06-2.03
		c0.32-0.68,0.67-1.37,1.05-2.03c0.4-0.69,0.81-1.34,1.23-1.95c0.76-0.07,1.53-0.1,2.3-0.1c0.77,0,1.54,0.04,2.29,0.1
		c0.42,0.61,0.84,1.25,1.23,1.94c0.39,0.67,0.74,1.35,1.06,2.03C16.77,13.18,16.41,13.86,16.03,14.53z M17.68,13.87
		c0.28,0.68,0.51,1.37,0.7,2.03c-0.67,0.16-1.37,0.3-2.1,0.41c0.25-0.39,0.5-0.79,0.73-1.21C17.25,14.69,17.47,14.28,17.68,13.87z
		 M12.51,19.31c-0.47-0.49-0.95-1.03-1.42-1.63c0.46,0.02,0.93,0.04,1.4,0.04c0.48,0,0.95-0.01,1.42-0.04
		C13.45,18.27,12.98,18.82,12.51,19.31z M8.72,16.3C8,16.2,7.3,16.06,6.63,15.9c0.19-0.66,0.42-1.34,0.69-2.01
		c0.21,0.41,0.43,0.82,0.67,1.22C8.22,15.52,8.47,15.92,8.72,16.3z M12.48,5.7c0.47,0.49,0.95,1.03,1.42,1.63
		c-0.46-0.02-0.93-0.04-1.4-0.04c-0.48,0-0.95,0.01-1.42,0.04C11.54,6.73,12.02,6.19,12.48,5.7z M8.71,8.7
		C8.46,9.09,8.21,9.5,7.98,9.91c-0.23,0.41-0.45,0.82-0.66,1.22c-0.28-0.68-0.51-1.37-0.7-2.03C7.28,8.95,7.99,8.81,8.71,8.7z
		 M4.1,15.08c-1.8-0.77-2.97-1.78-2.97-2.58c0-0.8,1.17-1.81,2.97-2.58c0.44-0.19,0.92-0.36,1.41-0.51c0.29,1,0.67,2.04,1.15,3.1
		c-0.47,1.06-0.85,2.09-1.13,3.09C5.02,15.44,4.55,15.27,4.1,15.08z M6.84,22.36c-0.69-0.4-0.99-1.91-0.76-3.86
		c0.06-0.48,0.15-0.98,0.26-1.5c1,0.24,2.09,0.43,3.24,0.56c0.69,0.94,1.4,1.8,2.12,2.55c-1.66,1.54-3.22,2.39-4.28,2.39
		C7.19,22.5,7,22.45,6.84,22.36z M18.93,18.48c0.24,1.95-0.06,3.46-0.74,3.86c-0.15,0.09-0.35,0.13-0.59,0.13
		c-1.05,0-2.62-0.84-4.28-2.37c0.71-0.75,1.43-1.6,2.1-2.54c1.15-0.12,2.24-0.31,3.24-0.56C18.78,17.51,18.87,18.01,18.93,18.48z
		 M20.89,15.08c-0.44,0.19-0.92,0.36-1.41,0.51c-0.29-1-0.67-2.04-1.15-3.1c0.47-1.06,0.85-2.09,1.13-3.09
		c0.5,0.16,0.98,0.33,1.43,0.52c1.8,0.77,2.97,1.78,2.97,2.58C23.86,13.3,22.7,14.32,20.89,15.08z"/>
	</g>
</svg>
